<?xml version="1.0" encoding="iso-8859-1"?>
<!-- Uploaded to: SVG Repo, www.svgrepo.com, Generator: SVG Repo Mixer Tools -->
<!DOCTYPE svg PUBLIC "-//W3C//DTD SVG 1.1//EN" "http://www.w3.org/Graphics/SVG/1.1/DTD/svg11.dtd">
<svg fill="#000000" version="1.1" id="Capa_1" xmlns="http://www.w3.org/2000/svg" xmlns:xlink="http://www.w3.org/1999/xlink" 
	 width="800px" height="800px" viewBox="0 0 944.469 944.469"
	 xml:space="preserve">
<g>
	<g>
		<path d="M18.234,908.301v26.168c0,5.523,4.477,10,10,10h888c5.523,0,10-4.477,10-10v-26.168c0-5.523-4.477-10-10-10h-54.123
			v-135.27c0-5.523-4.477-10-10-10h-112c-5.523,0-10-4.477-10-10V731.51c0-5.523,4.477-10,10-10h112c5.523,0,10-4.477,10-10V592.209
			c0-5.523-4.477-10-10-10h-112c-5.523,0-10-4.477-10-10v-11.521c0-5.523,4.477-10,10-10h112c5.523,0,10-4.477,10-10v-119.3
			c0-5.523-4.477-10-10-10h-112c-5.523,0-10-4.478-10-10v-11.521c0-5.522,4.477-10,10-10h112c5.523,0,10-4.477,10-10v-32.644
			c0-3.121-1.458-6.064-3.941-7.955L634.053,158.575c-2.483-1.891-3.941-4.834-3.941-7.956V10c0-5.523-4.477-10-10-10h-28.681
			c-5.523,0-10,4.477-10,10v108.499v161.372c0,5.523,4.477,10,10,10h108.681c5.523,0,10,4.477,10,10v11.521c0,5.523-4.477,10-10,10
			h-108.68c-5.523,0-10,4.477-10,10v119.3c0,5.523,4.477,10,10,10h108.681c5.523,0,10,4.477,10,10v11.521c0,5.523-4.477,10-10,10
			H591.432c-5.523,0-10,4.477-10,10v119.301c0,5.523,4.477,10,10,10h108.681c5.523,0,10,4.477,10,10v11.521c0,5.523-4.477,10-10,10
			H591.432c-5.523,0-10,4.477-10,10v225.264h-26.278V341.043c0-6.303-5.76-11.034-11.943-9.81L93.733,420.267
			c-4.683,0.927-8.057,5.035-8.057,9.809v468.225H28.234C22.711,898.301,18.234,902.777,18.234,908.301z M385.758,898.301H255.071
			v-48.939c0-35.727,28.963-64.689,64.69-64.689h1.307c35.727,0,64.689,28.961,64.689,64.689V898.301z M513.091,839.691
			c0,5.523-4.478,10-10,10h-82.667c-5.523,0-10-4.477-10-10v-45.332c0-5.523,4.477-10,10-10h82.667c5.522,0,10,4.477,10,10V839.691z
			 M123.09,476.285c0-4.794,3.403-8.915,8.112-9.819l370-71.154c6.167-1.187,11.889,3.54,11.889,9.82v94.559c0,5.523-4.478,10-10,10
			h-370c-5.523,0-10-4.477-10-10V476.285L123.09,476.285z M123.09,566.691c0-5.523,4.477-10,10-10h370c5.522,0,10,4.477,10,10
			v45.334c0,5.523-4.478,10-10,10h-370c-5.523,0-10-4.477-10-10V566.691L123.09,566.691z M123.09,681.025c0-5.523,4.477-10,10-10
			h370c5.522,0,10,4.477,10,10v45.332c0,5.523-4.478,10-10,10h-370c-5.523,0-10-4.477-10-10V681.025L123.09,681.025z
			 M123.09,794.359c0-5.523,4.477-10,10-10h87.314c5.523,0,10,4.477,10,10v45.332c0,5.523-4.477,10-10,10H133.09
			c-5.523,0-10-4.477-10-10V794.359L123.09,794.359z"/>
	</g>
</g>
</svg>