<?xml version="1.0" encoding="iso-8859-1"?>
<!-- Uploaded to: SVG Repo, www.svgrepo.com, Generator: SVG Repo Mixer Tools -->
<svg fill="#000000" height="800px" width="800px" version="1.1" id="Layer_1" xmlns="http://www.w3.org/2000/svg" xmlns:xlink="http://www.w3.org/1999/xlink" 
	 viewBox="0 0 512 512" xml:space="preserve">
<g>
	<g>
		<path d="M501.801,247.3H348.133v-54.748c0-47.355-35.913-86.473-81.933-91.565v-8.147h44.756c5.632,0,10.199-4.566,10.199-10.199
			V46.669c0-5.633-4.567-10.199-10.199-10.199H256c-5.632,0-10.199,4.566-10.199,10.199v54.317
			c-46.02,5.091-81.933,44.211-81.933,91.565V247.3H10.199C4.567,247.3,0,251.866,0,257.499v207.831
			c0,5.633,4.567,10.199,10.199,10.199h491.602c5.632,0,10.199-4.566,10.199-10.199V257.499
			C512,251.866,507.433,247.3,501.801,247.3z M266.199,56.869h34.557v15.572h-34.557V56.869z M163.868,455.131H20.398v-129.48
			h143.469V455.131z M163.868,305.253H20.398v-37.555h143.469V305.253z M256,120.818c36.093,0,66.045,26.794,71.011,61.535h-43.034
			h-55.954H184.99C189.955,147.611,219.907,120.818,256,120.818z M273.778,455.131h-35.556v-58.745
			c0-9.802,7.975-17.778,17.778-17.778s17.778,7.975,17.778,17.778V455.131z M294.177,455.131v-58.745
			c0-21.05-17.125-38.177-38.177-38.177c-21.051,0-38.177,17.127-38.177,38.177v58.745h-33.557v-252.38h33.557v116.698
			c0,5.633,4.567,10.199,10.199,10.199s10.199-4.566,10.199-10.199V202.751h35.555v73.732c0,5.633,4.567,10.199,10.199,10.199
			c5.632,0,10.199-4.566,10.199-10.199v-73.732h33.557v252.38H294.177z M491.602,455.131H348.133v-129.48h143.469V455.131z
			 M491.602,305.253H348.133v-37.555h143.469V305.253z"/>
	</g>
</g>
<g>
	<g>
		<path d="M283.977,298.258c-5.632,0-10.199,4.566-10.199,10.199v10.991c0,5.633,4.566,10.199,10.199,10.199
			c5.632,0,10.199-4.566,10.199-10.199v-10.991C294.177,302.825,289.609,298.258,283.977,298.258z"/>
	</g>
</g>
<g>
	<g>
		<path d="M74.147,342.223H47.169c-5.632,0-10.199,4.566-10.199,10.199v59.952c0,5.633,4.567,10.199,10.199,10.199h26.978
			c5.632,0,10.199-4.566,10.199-10.199v-59.952C84.346,346.789,79.78,342.223,74.147,342.223z M63.948,402.174h-6.58V362.62h6.58
			V402.174z"/>
	</g>
</g>
<g>
	<g>
		<path d="M138.095,342.223h-26.978c-5.632,0-10.199,4.566-10.199,10.199v59.952c0,5.633,4.567,10.199,10.199,10.199h26.978
			c5.632,0,10.199-4.566,10.199-10.199v-59.952C148.294,346.789,143.728,342.223,138.095,342.223z M127.896,402.174h-6.58V362.62
			h6.58V402.174z"/>
	</g>
</g>
<g>
	<g>
		<path d="M400.883,342.222h-26.978c-5.632,0-10.199,4.566-10.199,10.199v59.952c0,5.633,4.566,10.199,10.199,10.199h26.978
			c5.632,0,10.199-4.566,10.199-10.199v-59.952C411.082,346.788,406.515,342.222,400.883,342.222z M390.684,402.175h-6.58v-39.554
			h6.58V402.175z"/>
	</g>
</g>
<g>
	<g>
		<path d="M464.831,342.222h-26.978c-5.632,0-10.199,4.566-10.199,10.199v59.952c0,5.633,4.566,10.199,10.199,10.199h26.978
			c5.632,0,10.199-4.566,10.199-10.199v-59.952C475.03,346.788,470.463,342.222,464.831,342.222z M454.632,402.175h-6.58v-39.554
			h6.58V402.175z"/>
	</g>
</g>
</svg>