<?xml version="1.0" encoding="utf-8"?>
<!-- Uploaded to: SVG Repo, www.svgrepo.com, Generator: SVG Repo Mixer Tools -->
<svg fill="#000000" width="800px" height="800px" viewBox="0 0 32 32" version="1.1" xmlns="http://www.w3.org/2000/svg">
<title>home-building</title>
<path d="M30 1.25h-16c-0.414 0-0.75 0.336-0.75 0.75v0 16c0 0.414 0.336 0.75 0.75 0.75s0.75-0.336 0.75-0.75v0-15.25h14.5v26.5h-11.25c-0.414 0-0.75 0.336-0.75 0.75s0.336 0.75 0.75 0.75v0h12c0.414-0 0.75-0.336 0.75-0.75v0-28c-0-0.414-0.336-0.75-0.75-0.75v0zM17 8.75h3c0.414-0 0.75-0.336 0.75-0.75v0-3c-0-0.414-0.336-0.75-0.75-0.75h-3c-0.414 0-0.75 0.336-0.75 0.75v0 3c0 0.414 0.336 0.75 0.75 0.75v0zM17.75 5.75h1.5v1.5h-1.5zM24 8.75h3c0.414-0 0.75-0.336 0.75-0.75v0-3c-0-0.414-0.336-0.75-0.75-0.75h-3c-0.414 0-0.75 0.336-0.75 0.75v0 3c0 0.414 0.336 0.75 0.75 0.75v0zM24.75 5.75h1.5v1.5h-1.5zM16.25 14c0 0.414 0.336 0.75 0.75 0.75h3c0.414-0 0.75-0.336 0.75-0.75v0-3c-0-0.414-0.336-0.75-0.75-0.75h-3c-0.414 0-0.75 0.336-0.75 0.75v0zM17.75 11.75h1.5v1.5h-1.5zM23.25 14c0 0.414 0.336 0.75 0.75 0.75h3c0.414-0 0.75-0.336 0.75-0.75v0-3c-0-0.414-0.336-0.75-0.75-0.75h-3c-0.414 0-0.75 0.336-0.75 0.75v0zM24.75 11.75h1.5v1.5h-1.5zM20.75 20v-3c-0-0.414-0.336-0.75-0.75-0.75h-3c-0.414 0-0.75 0.336-0.75 0.75v0 3c0 0.414 0.336 0.75 0.75 0.75h3c0.414-0 0.75-0.336 0.75-0.75v0zM19.25 19.25h-1.5v-1.5h1.5zM23.25 20c0 0.414 0.336 0.75 0.75 0.75h3c0.414-0 0.75-0.336 0.75-0.75v0-3c-0-0.414-0.336-0.75-0.75-0.75h-3c-0.414 0-0.75 0.336-0.75 0.75v0zM24.75 17.75h1.5v1.5h-1.5zM8.988 16.431c-0.13-0.112-0.301-0.18-0.488-0.18s-0.358 0.068-0.489 0.181l0.001-0.001-6.5 5.571c-0.161 0.139-0.262 0.343-0.262 0.57v0 7.428c0 0.414 0.336 0.75 0.75 0.75h13c0.414-0 0.75-0.336 0.75-0.75v0-7.428c-0-0.228-0.101-0.431-0.261-0.57l-0.001-0.001zM6.929 29.25v-2.109c0.001-0.827 0.67-1.497 1.497-1.498h0.149c0.827 0.001 1.496 0.671 1.497 1.498v2.109zM14.25 29.25h-2.679v-2.109c-0.002-1.655-1.343-2.995-2.997-2.998h-0.149c-1.655 0.003-2.995 1.343-2.997 2.998v2.11h-2.679v-6.332l5.75-4.93 5.75 4.93z"></path>
</svg>